<svg id="visual" viewBox="0 0 900 600" width="900" height="600" xmlns="http://www.w3.org/2000/svg" xmlns:xlink="http://www.w3.org/1999/xlink" version="1.1"><rect x="0" y="0" width="900" height="600" fill="#ffffff"></rect><path d="M714 600L717 590.8C720 581.7 726 563.3 745 545.2C764 527 796 509 811.7 490.8C827.3 472.7 826.7 454.3 824.2 436.2C821.7 418 817.3 400 808.5 381.8C799.7 363.7 786.3 345.3 772.2 327.2C758 309 743 291 735.2 272.8C727.3 254.7 726.7 236.3 728.2 218.2C729.7 200 733.3 182 741.8 163.8C750.3 145.7 763.7 127.3 773.2 109.2C782.7 91 788.3 73 790.8 54.8C793.3 36.7 792.7 18.3 792.3 9.2L792 0L900 0L900 9.2C900 18.3 900 36.7 900 54.8C900 73 900 91 900 109.2C900 127.3 900 145.7 900 163.8C900 182 900 200 900 218.2C900 236.3 900 254.7 900 272.8C900 291 900 309 900 327.2C900 345.3 900 363.7 900 381.8C900 400 900 418 900 436.2C900 454.3 900 472.7 900 490.8C900 509 900 527 900 545.2C900 563.3 900 581.7 900 590.8L900 600Z" fill="#00b289"></path></svg>